<?xml version="1.0" encoding="UTF-8" standalone="no"?>
<!DOCTYPE svg PUBLIC "-//W3C//DTD SVG 1.1//EN" "http://www.w3.org/Graphics/SVG/1.1/DTD/svg11.dtd">
<svg width="100%" height="100%" viewBox="0 0 512 512" version="1.1" xmlns="http://www.w3.org/2000/svg" xmlns:xlink="http://www.w3.org/1999/xlink" xml:space="preserve" xmlns:serif="http://www.serif.com/" style="fill-rule:evenodd;clip-rule:evenodd;stroke-linejoin:round;stroke-miterlimit:2;">
    <g transform="matrix(1.10931,0,0,1.21116,-211.336,-133.866)">
        <path d="M651.243,215.468C651.243,157.378 599.752,110.217 536.33,110.217L306.502,110.217C243.079,110.217 191.588,157.378 191.588,215.468L191.588,427.484C191.588,485.574 243.079,532.735 306.502,532.735L536.33,532.735C599.752,532.735 651.243,485.574 651.243,427.484L651.243,215.468Z" style="fill:rgb(0,113,61);"/>
    </g>
    <g transform="matrix(2.22127,0,0,2.11084,-730.571,-303.298)">
        <path d="M411.17,175.108C396.578,179.908 385.298,187.828 377.33,198.868C369.362,209.908 365.378,223.588 365.378,239.908C365.378,247.204 366.05,252.196 367.394,254.884C368.738,257.572 369.41,259.204 369.41,259.78C348.866,259.78 338.594,251.044 338.594,233.572C338.594,221.668 343.154,209.716 352.274,197.716C361.394,185.716 373.106,175.924 387.41,168.34C401.714,160.756 415.97,156.964 430.178,156.964C437.282,156.964 444.578,158.308 452.066,160.996L445.442,312.772L508.802,160.996L550.274,160.996L520.034,372.964L478.562,372.964L496.994,243.652L442.85,372.964L403.394,372.964L409.154,243.076L361.058,372.964L338.018,372.964L411.17,175.108Z" style="fill:white;fill-rule:nonzero;"/>
    </g>
</svg>
