<?xml version="1.0" encoding="UTF-8" standalone="no"?>
<!DOCTYPE svg PUBLIC "-//W3C//DTD SVG 1.1//EN" "http://www.w3.org/Graphics/SVG/1.1/DTD/svg11.dtd">
<svg width="100%" height="100%" viewBox="0 0 1536 512" version="1.1" xmlns="http://www.w3.org/2000/svg" xmlns:xlink="http://www.w3.org/1999/xlink" xml:space="preserve" xmlns:serif="http://www.serif.com/" style="fill-rule:evenodd;clip-rule:evenodd;stroke-linejoin:round;stroke-miterlimit:2;">
    <g transform="matrix(0.838356,0,0,0.915562,-131.28,-47.2928)">
        <path d="M651.243,215.468C651.243,157.378 599.752,110.217 536.33,110.217L306.502,110.217C243.079,110.217 191.588,157.378 191.588,215.468L191.588,427.484C191.588,485.574 243.079,532.735 306.502,532.735L536.33,532.735C599.752,532.735 651.243,485.574 651.243,427.484L651.243,215.468Z" style="fill:rgb(0,113,61);"/>
    </g>
    <g transform="matrix(1.67871,0,0,1.59566,-520.666,-175.373)">
        <path d="M411.17,175.108C396.578,179.908 385.298,187.828 377.33,198.868C369.362,209.908 365.378,223.588 365.378,239.908C365.378,247.204 366.05,252.196 367.394,254.884C368.738,257.572 369.41,259.204 369.41,259.78C348.866,259.78 338.594,251.044 338.594,233.572C338.594,221.668 343.154,209.716 352.274,197.716C361.394,185.716 373.106,175.924 387.41,168.34C401.714,160.756 415.97,156.964 430.178,156.964C437.282,156.964 444.578,158.308 452.066,160.996L445.442,312.772L508.802,160.996L550.274,160.996L520.034,372.964L478.562,372.964L496.994,243.652L442.85,372.964L403.394,372.964L409.154,243.076L361.058,372.964L338.018,372.964L411.17,175.108Z" style="fill:white;fill-rule:nonzero;"/>
    </g>
    <g transform="matrix(0.844665,0,0,0.923772,-35.6091,281.978)">
        <g transform="matrix(144,0,0,144,934.776,99.4074)">
            <path d="M0.167,-0.554C0.145,-0.554 0.126,-0.562 0.111,-0.577C0.096,-0.592 0.088,-0.611 0.088,-0.633C0.088,-0.655 0.096,-0.674 0.111,-0.69C0.126,-0.705 0.145,-0.713 0.167,-0.713C0.189,-0.713 0.208,-0.705 0.224,-0.69C0.239,-0.674 0.247,-0.655 0.247,-0.633C0.247,-0.611 0.239,-0.592 0.224,-0.577C0.208,-0.562 0.189,-0.554 0.167,-0.554ZM0.099,0.006C0.067,0.006 0.041,-0.004 0.022,-0.024C0.002,-0.044 -0.008,-0.074 -0.008,-0.114C-0.008,-0.131 -0.005,-0.152 0,-0.179L0.068,-0.5L0.212,-0.5L0.14,-0.16C0.137,-0.15 0.136,-0.139 0.136,-0.128C0.136,-0.115 0.139,-0.105 0.146,-0.1C0.152,-0.094 0.162,-0.091 0.177,-0.091C0.189,-0.091 0.2,-0.093 0.209,-0.097C0.206,-0.064 0.195,-0.038 0.174,-0.021C0.153,-0.003 0.128,0.006 0.099,0.006Z" style="fill:rgb(0,113,61);fill-rule:nonzero;"/>
        </g>
        <text x="539.064px" y="99.407px" style="font-family:'Lobster-Regular', 'Lobster';font-size:144px;fill:rgb(0,113,61);">akeron</text>
    </g>
</svg>
