<?xml version="1.0" encoding="UTF-8" standalone="no"?>
<!DOCTYPE svg PUBLIC "-//W3C//DTD SVG 1.1//EN" "http://www.w3.org/Graphics/SVG/1.1/DTD/svg11.dtd">
<svg width="100%" height="100%" viewBox="0 0 1400 512" version="1.1" xmlns="http://www.w3.org/2000/svg" xmlns:xlink="http://www.w3.org/1999/xlink" xml:space="preserve" xmlns:serif="http://www.serif.com/" style="fill-rule:evenodd;clip-rule:evenodd;stroke-linejoin:round;stroke-miterlimit:2;">
    <g transform="matrix(0.838356,0,0,0.915562,-94.2112,-43.6284)">
        <path d="M651.243,215.468C651.243,157.378 599.752,110.217 536.33,110.217L306.502,110.217C243.079,110.217 191.588,157.378 191.588,215.468L191.588,427.484C191.588,485.574 243.079,532.735 306.502,532.735L536.33,532.735C599.752,532.735 651.243,485.574 651.243,427.484L651.243,215.468Z" style="fill:rgb(0,113,61);"/>
    </g>
    <g transform="matrix(1.67871,0,0,1.59566,-483.598,-171.708)">
        <path d="M411.17,175.108C396.578,179.908 385.298,187.828 377.33,198.868C369.362,209.908 365.378,223.588 365.378,239.908C365.378,247.204 366.05,252.196 367.394,254.884C368.738,257.572 369.41,259.204 369.41,259.78C348.866,259.78 338.594,251.044 338.594,233.572C338.594,221.668 343.154,209.716 352.274,197.716C361.394,185.716 373.106,175.924 387.41,168.34C401.714,160.756 415.97,156.964 430.178,156.964C437.282,156.964 444.578,158.308 452.066,160.996L445.442,312.772L508.802,160.996L550.274,160.996L520.034,372.964L478.562,372.964L496.994,243.652L442.85,372.964L403.394,372.964L409.154,243.076L361.058,372.964L338.018,372.964L411.17,175.108Z" style="fill:white;fill-rule:nonzero;"/>
    </g>
    <g transform="matrix(2.05325,0,0,2.24555,-639.098,162.075)">
        <g transform="matrix(144,0,0,144,539.064,99.4074)">
            <path d="M0.12,0.006C0.082,0.006 0.05,-0.007 0.025,-0.033C-0,-0.059 -0.013,-0.1 -0.013,-0.155C-0.013,-0.204 -0.003,-0.256 0.017,-0.311C0.036,-0.365 0.066,-0.411 0.105,-0.449C0.143,-0.486 0.19,-0.505 0.244,-0.505C0.271,-0.505 0.292,-0.5 0.305,-0.491C0.318,-0.482 0.325,-0.469 0.325,-0.454L0.325,-0.447L0.336,-0.5L0.48,-0.5L0.408,-0.16C0.405,-0.15 0.404,-0.139 0.404,-0.128C0.404,-0.099 0.418,-0.085 0.445,-0.085C0.464,-0.085 0.48,-0.094 0.494,-0.111C0.507,-0.128 0.518,-0.151 0.526,-0.179L0.568,-0.179C0.543,-0.107 0.513,-0.058 0.477,-0.033C0.44,-0.007 0.404,0.006 0.367,0.006C0.339,0.006 0.317,-0.002 0.3,-0.018C0.283,-0.033 0.272,-0.056 0.269,-0.086C0.25,-0.059 0.228,-0.037 0.205,-0.02C0.181,-0.003 0.153,0.006 0.12,0.006ZM0.185,-0.091C0.202,-0.091 0.218,-0.099 0.235,-0.115C0.251,-0.13 0.262,-0.152 0.268,-0.179L0.316,-0.405C0.316,-0.414 0.313,-0.422 0.306,-0.431C0.299,-0.439 0.289,-0.443 0.275,-0.443C0.248,-0.443 0.224,-0.428 0.203,-0.397C0.182,-0.366 0.165,-0.328 0.153,-0.285C0.141,-0.241 0.135,-0.202 0.135,-0.169C0.135,-0.136 0.14,-0.114 0.15,-0.105C0.159,-0.096 0.171,-0.091 0.185,-0.091Z" style="fill:white;fill-rule:nonzero;"/>
        </g>
        <g transform="matrix(144,0,0,144,614.808,99.4074)">
            <path d="M0.376,0.006C0.335,0.006 0.303,-0.004 0.282,-0.024C0.261,-0.043 0.25,-0.071 0.25,-0.108C0.25,-0.124 0.252,-0.141 0.256,-0.16L0.264,-0.199C0.267,-0.21 0.268,-0.223 0.268,-0.236C0.268,-0.268 0.256,-0.284 0.232,-0.284C0.221,-0.284 0.21,-0.281 0.199,-0.275C0.187,-0.269 0.173,-0.26 0.158,-0.247L0.106,-0L-0.038,-0L0.107,-0.68L0.255,-0.7L0.18,-0.348L0.373,-0.5L0.472,-0.5L0.272,-0.361C0.282,-0.364 0.293,-0.365 0.305,-0.365C0.341,-0.365 0.368,-0.354 0.387,-0.332C0.406,-0.31 0.415,-0.282 0.415,-0.248C0.415,-0.234 0.414,-0.221 0.411,-0.21L0.4,-0.16C0.397,-0.148 0.395,-0.137 0.395,-0.128C0.395,-0.103 0.408,-0.091 0.434,-0.091C0.454,-0.091 0.47,-0.098 0.482,-0.113C0.494,-0.127 0.506,-0.149 0.518,-0.179L0.56,-0.179C0.519,-0.056 0.457,0.006 0.376,0.006Z" style="fill:white;fill-rule:nonzero;"/>
        </g>
        <g transform="matrix(144,0,0,144,689.4,99.4074)">
            <path d="M0.143,0.006C0.094,0.006 0.055,-0.007 0.028,-0.033C0.001,-0.058 -0.013,-0.098 -0.013,-0.153C-0.013,-0.199 -0.004,-0.25 0.014,-0.305C0.032,-0.36 0.061,-0.408 0.102,-0.449C0.143,-0.489 0.194,-0.509 0.257,-0.509C0.33,-0.509 0.367,-0.477 0.367,-0.413C0.367,-0.376 0.356,-0.341 0.335,-0.31C0.314,-0.279 0.285,-0.254 0.25,-0.235C0.215,-0.216 0.177,-0.205 0.137,-0.202C0.136,-0.182 0.135,-0.169 0.135,-0.162C0.135,-0.129 0.141,-0.107 0.152,-0.096C0.163,-0.084 0.182,-0.078 0.207,-0.078C0.243,-0.078 0.274,-0.086 0.3,-0.103C0.325,-0.12 0.353,-0.145 0.384,-0.179L0.418,-0.179C0.344,-0.056 0.252,0.006 0.143,0.006ZM0.145,-0.25C0.17,-0.251 0.193,-0.26 0.216,-0.276C0.238,-0.292 0.256,-0.312 0.27,-0.337C0.283,-0.362 0.29,-0.388 0.29,-0.415C0.29,-0.442 0.282,-0.456 0.265,-0.456C0.241,-0.456 0.218,-0.435 0.195,-0.393C0.171,-0.351 0.155,-0.303 0.145,-0.25Z" style="fill:white;fill-rule:nonzero;"/>
        </g>
        <g transform="matrix(144,0,0,144,744.696,99.4074)">
            <path d="M0.068,-0.5L0.212,-0.5L0.199,-0.438C0.222,-0.458 0.242,-0.473 0.261,-0.484C0.279,-0.495 0.299,-0.5 0.32,-0.5C0.341,-0.5 0.358,-0.493 0.371,-0.478C0.383,-0.463 0.389,-0.446 0.389,-0.425C0.389,-0.406 0.383,-0.389 0.37,-0.374C0.357,-0.359 0.34,-0.352 0.317,-0.352C0.302,-0.352 0.293,-0.356 0.288,-0.363C0.283,-0.37 0.279,-0.38 0.276,-0.393C0.274,-0.402 0.272,-0.408 0.27,-0.412C0.268,-0.416 0.264,-0.418 0.259,-0.418C0.245,-0.418 0.233,-0.415 0.224,-0.41C0.214,-0.404 0.201,-0.394 0.186,-0.38L0.106,-0L-0.038,-0L0.068,-0.5Z" style="fill:white;fill-rule:nonzero;"/>
        </g>
        <g transform="matrix(144,0,0,144,798.84,99.4074)">
            <path d="M0.146,0.004C0.097,0.004 0.058,-0.009 0.029,-0.034C0,-0.059 -0.014,-0.099 -0.014,-0.154C-0.014,-0.199 -0.005,-0.25 0.014,-0.305C0.033,-0.36 0.063,-0.408 0.104,-0.449C0.145,-0.489 0.197,-0.509 0.26,-0.509C0.345,-0.509 0.388,-0.456 0.388,-0.349L0.388,-0.348C0.39,-0.347 0.394,-0.347 0.399,-0.347C0.421,-0.347 0.446,-0.353 0.475,-0.365C0.504,-0.376 0.53,-0.39 0.553,-0.407L0.562,-0.38C0.543,-0.359 0.518,-0.342 0.487,-0.328C0.456,-0.313 0.422,-0.303 0.385,-0.297C0.38,-0.236 0.366,-0.183 0.344,-0.138C0.322,-0.093 0.294,-0.058 0.259,-0.033C0.224,-0.008 0.187,0.004 0.146,0.004ZM0.186,-0.086C0.202,-0.086 0.218,-0.095 0.234,-0.114C0.25,-0.132 0.264,-0.157 0.276,-0.189C0.288,-0.22 0.297,-0.255 0.302,-0.294C0.284,-0.298 0.275,-0.312 0.275,-0.336C0.275,-0.363 0.285,-0.381 0.306,-0.39C0.305,-0.412 0.301,-0.427 0.296,-0.436C0.291,-0.444 0.281,-0.448 0.268,-0.448C0.246,-0.448 0.225,-0.432 0.204,-0.4C0.183,-0.368 0.167,-0.33 0.154,-0.285C0.141,-0.24 0.135,-0.201 0.135,-0.167C0.135,-0.135 0.139,-0.114 0.146,-0.103C0.153,-0.092 0.167,-0.086 0.186,-0.086Z" style="fill:white;fill-rule:nonzero;"/>
        </g>
        <g transform="matrix(144,0,0,144,862.056,99.4074)">
            <path d="M0.361,0.006C0.32,0.006 0.291,-0.005 0.272,-0.027C0.253,-0.048 0.243,-0.075 0.243,-0.107C0.243,-0.121 0.245,-0.137 0.248,-0.155C0.251,-0.172 0.255,-0.189 0.259,-0.206C0.262,-0.223 0.265,-0.233 0.266,-0.238C0.271,-0.261 0.276,-0.284 0.281,-0.307C0.286,-0.33 0.288,-0.348 0.288,-0.362C0.288,-0.396 0.276,-0.413 0.252,-0.413C0.235,-0.413 0.219,-0.405 0.206,-0.388C0.193,-0.371 0.182,-0.348 0.174,-0.321L0.106,-0L-0.038,-0L0.068,-0.5L0.212,-0.5L0.201,-0.448C0.234,-0.485 0.273,-0.504 0.318,-0.504C0.352,-0.504 0.379,-0.495 0.399,-0.476C0.419,-0.457 0.429,-0.429 0.429,-0.391C0.429,-0.372 0.427,-0.35 0.422,-0.327C0.417,-0.303 0.411,-0.274 0.402,-0.24C0.397,-0.219 0.392,-0.199 0.388,-0.18C0.383,-0.16 0.381,-0.144 0.381,-0.133C0.381,-0.12 0.384,-0.109 0.39,-0.102C0.396,-0.095 0.406,-0.091 0.421,-0.091C0.441,-0.091 0.457,-0.098 0.469,-0.113C0.481,-0.127 0.493,-0.149 0.505,-0.179L0.547,-0.179C0.522,-0.106 0.494,-0.057 0.462,-0.032C0.429,-0.007 0.396,0.006 0.361,0.006Z" style="fill:white;fill-rule:nonzero;"/>
        </g>
        <g transform="matrix(144,0,0,144,934.776,99.4074)">
            <path d="M0.167,-0.554C0.145,-0.554 0.126,-0.562 0.111,-0.577C0.096,-0.592 0.088,-0.611 0.088,-0.633C0.088,-0.655 0.096,-0.674 0.111,-0.69C0.126,-0.705 0.145,-0.713 0.167,-0.713C0.189,-0.713 0.208,-0.705 0.224,-0.69C0.239,-0.674 0.247,-0.655 0.247,-0.633C0.247,-0.611 0.239,-0.592 0.224,-0.577C0.208,-0.562 0.189,-0.554 0.167,-0.554ZM0.099,0.006C0.067,0.006 0.041,-0.004 0.022,-0.024C0.002,-0.044 -0.008,-0.074 -0.008,-0.114C-0.008,-0.131 -0.005,-0.152 0,-0.179L0.068,-0.5L0.212,-0.5L0.14,-0.16C0.137,-0.15 0.136,-0.139 0.136,-0.128C0.136,-0.115 0.139,-0.105 0.146,-0.1C0.152,-0.094 0.162,-0.091 0.177,-0.091C0.189,-0.091 0.2,-0.093 0.209,-0.097C0.206,-0.064 0.195,-0.038 0.174,-0.021C0.153,-0.003 0.128,0.006 0.099,0.006Z" style="fill:white;fill-rule:nonzero;"/>
        </g>
    </g>
</svg>
